<svg width="30" height="30" viewBox="0 0 30 30" fill="none" xmlns="http://www.w3.org/2000/svg">
<path d="M12.2906 2.25C11.6672 2.25 11.1047 2.63906 10.8844 3.225L10.125 5.25H5.625C5.00156 5.25 4.5 5.75156 4.5 6.375C4.5 6.99844 5.00156 7.5 5.625 7.5H24.375C24.9984 7.5 25.5 6.99844 25.5 6.375C25.5 5.75156 24.9984 5.25 24.375 5.25H19.875L19.1156 3.225C18.8953 2.63906 18.3375 2.25 17.7094 2.25H12.2906ZM6 9.75V24C6 25.6547 7.34531 27 9 27H21C22.6547 27 24 25.6547 24 24V9.75H21.75V24C21.75 24.4125 21.4125 24.75 21 24.75H9C8.5875 24.75 8.25 24.4125 8.25 24V9.75H6ZM13.5 13.125C13.5 12.5016 12.9984 12 12.375 12C11.7516 12 11.25 12.5016 11.25 13.125V21.375C11.25 21.9984 11.7516 22.5 12.375 22.5C12.9984 22.5 13.5 21.9984 13.5 21.375V13.125ZM18.75 13.125C18.75 12.5016 18.2484 12 17.625 12C17.0016 12 16.5 12.5016 16.5 13.125V21.375C16.5 21.9984 17.0016 22.5 17.625 22.5C18.2484 22.5 18.75 21.9984 18.75 21.375V13.125Z" fill="black"/>
</svg>
